<svg xmlns="http://www.w3.org/2000/svg" viewBox="0 0 1200 900" width="1200" height="900">
  <rect width="1200" height="900" rx="36" fill="#f7f8fb"/>
  <ellipse cx="600" cy="440" rx="430" ry="315" fill="#dbeafe" opacity="0.65"/>
  <ellipse cx="600" cy="440" rx="360" ry="250" fill="#ede9fe" opacity="0.55"/>

  <g stroke="#8aa2e8" stroke-width="8" stroke-linecap="round" opacity="0.9">
    <line x1="345" y1="245" x2="600" y2="430"/>
    <line x1="855" y1="245" x2="600" y2="430"/>
    <line x1="345" y1="610" x2="600" y2="430"/>
    <line x1="855" y1="610" x2="600" y2="430"/>
    <line x1="600" y1="735" x2="600" y2="430"/>
  </g>

  <g font-family="Arial, Helvetica, sans-serif" text-anchor="middle" fill="#111827">
    <circle cx="600" cy="430" r="128" fill="#bfdbfe" stroke="#3157c7" stroke-width="6"/>
    <text x="600" y="412" font-size="52" font-weight="800">AI</text>
    <text x="600" y="470" font-size="34" font-weight="800">Governance</text>

    <circle cx="345" cy="245" r="118" fill="#ffffff" stroke="#3157c7" stroke-width="6"/>
    <text x="345" y="226" font-size="34" font-weight="800">People</text>
    <text x="345" y="270" font-size="26" font-weight="800">Policies &amp; Training</text>

    <circle cx="855" cy="245" r="118" fill="#ffffff" stroke="#3157c7" stroke-width="6"/>
    <text x="855" y="226" font-size="34" font-weight="800">Integration</text>
    <text x="855" y="270" font-size="26" font-weight="800">Process</text>

    <circle cx="345" cy="610" r="118" fill="#ffffff" stroke="#3157c7" stroke-width="6"/>
    <text x="345" y="591" font-size="34" font-weight="800">Analytics</text>
    <text x="345" y="635" font-size="26" font-weight="800">Evidence-Based</text>

    <circle cx="855" cy="610" r="118" fill="#ffffff" stroke="#3157c7" stroke-width="6"/>
    <text x="855" y="591" font-size="34" font-weight="800">Security</text>
    <text x="855" y="635" font-size="26" font-weight="800">Trust &amp; Verify</text>

    <circle cx="600" cy="735" r="126" fill="#ffffff" stroke="#3157c7" stroke-width="6"/>
    <text x="600" y="700" font-size="28" font-weight="800">Hardware &amp;</text>
    <text x="600" y="738" font-size="28" font-weight="800">Technology</text>
    <text x="600" y="776" font-size="28" font-weight="800">Considerations</text>
  </g>

  <g fill="#0ea5e9">
    <circle cx="600" cy="100" r="16"/>
    <circle cx="1050" cy="440" r="16"/>
    <circle cx="600" cy="875" r="16"/>
    <circle cx="150" cy="440" r="16"/>
  </g>
</svg>
