<svg xmlns="http://www.w3.org/2000/svg" viewBox="0 0 420 360" width="840" height="720">
          <defs>
            <linearGradient id="g" x1="0" y1="0" x2="1" y2="1"><stop stop-color="#7dd3fc"/><stop offset="1" stop-color="#c4b5fd"/></linearGradient>
          </defs>
          <path d="M70 160 C120 55, 300 55, 350 160 C330 295, 95 305, 70 160Z" fill="url(#g)" opacity=".25"/>
          <line class="line" x1="120" y1="105" x2="210" y2="160"/><line class="line" x1="300" y1="105" x2="210" y2="160"/><line class="line" x1="120" y1="225" x2="210" y2="160"/><line class="line" x1="300" y1="225" x2="210" y2="160"/><line class="line" x1="210" y1="285" x2="210" y2="160"/>
          <circle class="node" cx="120" cy="105" r="42"/><circle class="node" cx="300" cy="105" r="42"/><circle class="node" cx="120" cy="225" r="42"/><circle class="node" cx="300" cy="225" r="42"/><circle class="node" cx="210" cy="285" r="46"/><circle class="node2" cx="210" cy="160" r="54"/>
          <text x="210" y="154" text-anchor="middle" font-size="18" font-weight="800" fill="#172033">AI</text><text x="210" y="178" text-anchor="middle" font-size="12" font-weight="700" fill="#172033">Governance</text>
          <text x="120" y="97" text-anchor="middle" font-size="12" font-weight="700" fill="#172033">People</text><text x="120" y="112" text-anchor="middle" font-size="10" font-weight="700" fill="#172033">Policies &amp; Training</text><text x="300" y="97" text-anchor="middle" font-size="12" font-weight="700" fill="#172033">Integration</text><text x="300" y="112" text-anchor="middle" font-size="10" font-weight="700" fill="#172033">Process</text><text x="120" y="218" text-anchor="middle" font-size="11" font-weight="700" fill="#172033">Analytics</text><text x="120" y="232" text-anchor="middle" font-size="10" font-weight="700" fill="#172033">Evidence-Based</text><text x="300" y="218" text-anchor="middle" font-size="12" font-weight="700" fill="#172033">Security</text><text x="300" y="232" text-anchor="middle" font-size="10" font-weight="700" fill="#172033">Trust &amp; Verify</text><text x="210" y="274" text-anchor="middle" font-size="10" font-weight="700" fill="#172033">Hardware &amp;</text><text x="210" y="288" text-anchor="middle" font-size="10" font-weight="700" fill="#172033">Technology</text><text x="210" y="302" text-anchor="middle" font-size="10" font-weight="700" fill="#172033">Considerations</text>
          <circle class="accent" cx="210" cy="70" r="8"/><circle class="accent" cx="355" cy="160" r="8"/><circle class="accent" cx="210" cy="340" r="8"/><circle class="accent" cx="65" cy="160" r="8"/>
        </svg>
